ffmpeg started on 2025-05-12 at 17:55:00
Report written to "D:\Convert\FFMetrics\reports\psnr_report-6.txt"
Log level: 32
Command line:
ffmpeg -hide_banner -nostdin -i "G:\\\xc0\xed\xe8\xec\xe5\\\xce\xed\xe3\xee\xe8\xed\xe3\xe8\\!_35_\xcb\xe5\xf2\xee_2024\\DreamCast\\\xce\xef\xe5\xf0\xe0\xf6\xe8\xff - \xd1\xe5\xec\xe5\xe9\xea\xe0 \xa8\xe4\xe7\xe0\xea\xf3\xf0\xe0\\[DC] Yozakura-san Chi no Daisakusen - 24_Telegram_HEVC.mkv" -i "G:\\\xc0\xed\xe8\xec\xe5\\\xce\xed\xe3\xee\xe8\xed\xe3\xe8\\!_35_\xcb\xe5\xf2\xee_2024\\DreamCast\\\xce\xef\xe5\xf0\xe0\xf6\xe8\xff - \xd1\xe5\xec\xe5\xe9\xea\xe0 \xa8\xe4\xe7\xe0\xea\xf3\xf0\xe0\\[DC] Yozakura-san Chi no Daisakusen - 24_Telegram.mp4" -lavfi "[0:v]settb=AVTB,setpts=PTS-STARTPTS,format=pix_fmts=yuv420p10,fps=24000/1001,scale=1920:1080:flags=bicubic[main];[1:v]settb=AVTB,setpts=PTS-STARTPTS,format=pix_fmts=yuv420p,fps=24000/1001,scale=1920:1080:flags=bicubic[ref];[main][ref]psnr=eof_action=endall:stats_file='D\\:/Convert/FFMetrics/logs/psnr_logfile-6.txt'" -f null -
Input #0, matroska,webm, from 'G:\Аниме\Онгоинги\!_35_Лето_2024\DreamCast\Операция - Семейка Ёдзакура\[DC] Yozakura-san Chi no Daisakusen - 24_Telegram_HEVC.mkv':
  Metadata:
    COMPATIBLE_BRANDS: isomiso2avc1mp41
    MAJOR_BRAND     : isom
    MINOR_VERSION   : 512
    ENCODER         : Lavf61.7.100
  Duration: 00:24:09.73, start: -0.021000, bitrate: 1265 kb/s
  Stream #0:0: Video: hevc (Main 10), yuv420p10le(tv, bt709, progressive), 1920x1080 [SAR 1:1 DAR 16:9], 23.98 fps, 23.98 tbr, 1k tbn (default)
      Metadata:
        HANDLER_NAME    : VideoHandler
        VENDOR_ID       : [0][0][0][0]
        ENCODER         : Lavc61.19.100 libx265
        BPS             : 1067999
        DURATION        : 00:24:09.614708333
        NUMBER_OF_FRAMES: 34756
        NUMBER_OF_BYTES : 193523292
        _STATISTICS_WRITING_APP: mkvpropedit v66.0.0 ('Josie') 64-bit
        _STATISTICS_WRITING_DATE_UTC: 2025-05-08 17:39:44
        _STATISTICS_TAGS: BPS DURATION NUMBER_OF_FRAMES NUMBER_OF_BYTES
  Stream #0:1: Audio: aac (LC), 48000 Hz, stereo, fltp (default)
      Metadata:
        HANDLER_NAME    : SoundHandler
        VENDOR_ID       : [0][0][0][0]
        ENCODER         : Lavc61.19.100 aac
        BPS             : 193932
        DURATION        : 00:24:09.728000000
        NUMBER_OF_FRAMES: 67957
        NUMBER_OF_BYTES : 35143687
        _STATISTICS_WRITING_APP: mkvpropedit v66.0.0 ('Josie') 64-bit
        _STATISTICS_WRITING_DATE_UTC: 2025-05-08 17:39:44
        _STATISTICS_TAGS: BPS DURATION NUMBER_OF_FRAMES NUMBER_OF_BYTES
Input #1, mov,mp4,m4a,3gp,3g2,mj2, from 'G:\Аниме\Онгоинги\!_35_Лето_2024\DreamCast\Операция - Семейка Ёдзакура\[DC] Yozakura-san Chi no Daisakusen - 24_Telegram.mp4':
  Metadata:
    major_brand     : isom
    minor_version   : 512
    compatible_brands: isomiso2avc1mp41
    encoder         : Lavf61.1.100
  Duration: 00:24:09.68, start: 0.000000, bitrate: 3594 kb/s
  Stream #1:0[0x1](und): Video: h264 (High) (avc1 / 0x31637661), yuv420p(tv, bt709, progressive), 1920x1080 [SAR 1:1 DAR 16:9], 3447 kb/s, 23.98 fps, 23.98 tbr, 24k tbn (default)
      Metadata:
        handler_name    : VideoHandler
        vendor_id       : [0][0][0][0]
        encoder         : Lavc61.3.100 h264_qsv
  Stream #1:1[0x2](und): Audio: aac (HE-AACv2) (mp4a / 0x6134706D), 48000 Hz, stereo, fltp, 144 kb/s (default)
      Metadata:
        handler_name    : SoundHandler
        vendor_id       : [0][0][0][0]
Stream mapping:
  Stream #0:0 (hevc) -> settb:default
  Stream #1:0 (h264) -> settb:default
  psnr:default -> Stream #0:0 (wrapped_avframe)
  Stream #0:1 -> #0:1 (aac (native) -> pcm_s16le (native))
Output #0, null, to 'pipe:':
  Metadata:
    COMPATIBLE_BRANDS: isomiso2avc1mp41
    MAJOR_BRAND     : isom
    MINOR_VERSION   : 512
    encoder         : Lavf61.7.100
  Stream #0:0: Video: wrapped_avframe, yuv420p10le(tv, bt709, progressive), 1920x1080 [SAR 1:1 DAR 16:9], q=2-31, 200 kb/s, 23.98 fps, 23.98 tbn
      Metadata:
        encoder         : Lavc61.19.100 wrapped_avframe
  Stream #0:1: Audio: pcm_s16le, 48000 Hz, stereo, s16, 1536 kb/s (default)
      Metadata:
        HANDLER_NAME    : SoundHandler
        VENDOR_ID       : [0][0][0][0]
        _STATISTICS_TAGS: BPS DURATION NUMBER_OF_FRAMES NUMBER_OF_BYTES
        BPS             : 193932
        DURATION        : 00:24:09.728000000
        NUMBER_OF_FRAMES: 67957
        NUMBER_OF_BYTES : 35143687
        _STATISTICS_WRITING_APP: mkvpropedit v66.0.0 ('Josie') 64-bit
        _STATISTICS_WRITING_DATE_UTC: 2025-05-08 17:39:44
        encoder         : Lavc61.19.100 pcm_s16le
frame=  176 fps=0.0 q=-0.0 size=N/A time=00:00:07.34 bitrate=N/A speed=14.1x    frame=  437 fps=426 q=-0.0 size=N/A time=00:00:18.22 bitrate=N/A speed=17.8x    frame=  635 fps=410 q=-0.0 size=N/A time=00:00:26.48 bitrate=N/A speed=17.1x    frame=  866 fps=421 q=-0.0 size=N/A time=00:00:36.11 bitrate=N/A speed=17.6x    frame= 1136 fps=440 q=-0.0 size=N/A time=00:00:47.38 bitrate=N/A speed=18.4x    frame= 1406 fps=454 q=-0.0 size=N/A time=00:00:58.64 bitrate=N/A speed=18.9x    frame= 1683 fps=467 q=-0.0 size=N/A time=00:01:10.19 bitrate=N/A speed=19.5x    frame= 1959 fps=475 q=-0.0 size=N/A time=00:01:21.70 bitrate=N/A speed=19.8x    frame= 2214 fps=476 q=-0.0 size=N/A time=00:01:32.34 bitrate=N/A speed=19.9x    frame= 2390 fps=462 q=-0.0 size=N/A time=00:01:39.68 bitrate=N/A speed=19.3x    frame= 2553 fps=449 q=-0.0 size=N/A time=00:01:46.48 bitrate=N/A speed=18.7x    frame= 2715 fps=438 q=-0.0 size=N/A time=00:01:53.23 bitrate=N/A speed=18.2x    frame= 2936 fps=437 q=-0.0 size=N/A time=00:02:02.45 bitrate=N/A speed=18.2x    frame= 3154 fps=436 q=-0.0 size=N/A time=00:02:11.54 bitrate=N/A speed=18.2x    frame= 3342 fps=432 q=-0.0 size=N/A time=00:02:19.38 bitrate=N/A speed=  18x    frame= 3564 fps=431 q=-0.0 size=N/A time=00:02:28.64 bitrate=N/A speed=  18x    frame= 3747 fps=427 q=-0.0 size=N/A time=00:02:36.28 bitrate=N/A speed=17.8x    frame= 3900 fps=419 q=-0.0 size=N/A time=00:02:42.66 bitrate=N/A speed=17.5x    frame= 4122 fps=420 q=-0.0 size=N/A time=00:02:51.92 bitrate=N/A speed=17.5x    frame= 4297 fps=416 q=-0.0 size=N/A time=00:02:59.22 bitrate=N/A speed=17.4x    frame= 4516 fps=416 q=-0.0 size=N/A time=00:03:08.35 bitrate=N/A speed=17.4x    frame= 4706 fps=414 q=-0.0 size=N/A time=00:03:16.27 bitrate=N/A speed=17.3x    frame= 4905 fps=413 q=-0.0 size=N/A time=00:03:24.57 bitrate=N/A speed=17.2x    frame= 5137 fps=415 q=-0.0 size=N/A time=00:03:34.25 bitrate=N/A speed=17.3x    frame= 5385 fps=417 q=-0.0 size=N/A time=00:03:44.59 bitrate=N/A speed=17.4x    frame= 5622 fps=419 q=-0.0 size=N/A time=00:03:54.48 bitrate=N/A speed=17.5x    frame= 5860 fps=421 q=-0.0 size=N/A time=00:04:04.41 bitrate=N/A speed=17.5x    frame= 6139 fps=425 q=-0.0 size=N/A time=00:04:16.04 bitrate=N/A speed=17.7x    frame= 6382 fps=427 q=-0.0 size=N/A time=00:04:26.18 bitrate=N/A speed=17.8x    frame= 6611 fps=427 q=-0.0 size=N/A time=00:04:35.73 bitrate=N/A speed=17.8x    frame= 6856 fps=429 q=-0.0 size=N/A time=00:04:45.95 bitrate=N/A speed=17.9x    frame= 7083 fps=429 q=-0.0 size=N/A time=00:04:55.42 bitrate=N/A speed=17.9x    frame= 7345 fps=431 q=-0.0 size=N/A time=00:05:06.34 bitrate=N/A speed=  18x    frame= 7620 fps=434 q=-0.0 size=N/A time=00:05:17.81 bitrate=N/A speed=18.1x    frame= 7870 fps=435 q=-0.0 size=N/A time=00:05:28.24 bitrate=N/A speed=18.2x    frame= 8135 fps=437 q=-0.0 size=N/A time=00:05:39.29 bitrate=N/A speed=18.2x    frame= 8398 fps=439 q=-0.0 size=N/A time=00:05:50.26 bitrate=N/A speed=18.3x    frame= 8658 fps=441 q=-0.0 size=N/A time=00:06:01.11 bitrate=N/A speed=18.4x    frame= 8912 fps=443 q=-0.0 size=N/A time=00:06:11.70 bitrate=N/A speed=18.5x    frame= 9195 fps=445 q=-0.0 size=N/A time=00:06:23.50 bitrate=N/A speed=18.6x    frame= 9385 fps=443 q=-0.0 size=N/A time=00:06:31.43 bitrate=N/A speed=18.5x    frame= 9607 fps=443 q=-0.0 size=N/A time=00:06:40.69 bitrate=N/A speed=18.5x    frame= 9805 fps=441 q=-0.0 size=N/A time=00:06:48.95 bitrate=N/A speed=18.4x    frame=10055 fps=443 q=-0.0 size=N/A time=00:06:59.37 bitrate=N/A speed=18.5x    frame=10313 fps=444 q=-0.0 size=N/A time=00:07:10.13 bitrate=N/A speed=18.5x    frame=10560 fps=445 q=-0.0 size=N/A time=00:07:20.44 bitrate=N/A speed=18.5x    frame=10773 fps=444 q=-0.0 size=N/A time=00:07:29.32 bitrate=N/A speed=18.5x    frame=10967 fps=443 q=-0.0 size=N/A time=00:07:37.41 bitrate=N/A speed=18.5x    frame=11178 fps=442 q=-0.0 size=N/A time=00:07:46.21 bitrate=N/A speed=18.4x    frame=11421 fps=442 q=-0.0 size=N/A time=00:07:56.35 bitrate=N/A speed=18.5x    frame=11702 fps=444 q=-0.0 size=N/A time=00:08:08.07 bitrate=N/A speed=18.5x    frame=11904 fps=444 q=-0.0 size=N/A time=00:08:16.49 bitrate=N/A speed=18.5x    frame=12162 fps=444 q=-0.0 size=N/A time=00:08:27.25 bitrate=N/A speed=18.5x    frame=12415 fps=446 q=-0.0 size=N/A time=00:08:37.80 bitrate=N/A speed=18.6x    frame=12680 fps=447 q=-0.0 size=N/A time=00:08:48.86 bitrate=N/A speed=18.6x    frame=12957 fps=448 q=-0.0 size=N/A time=00:09:00.41 bitrate=N/A speed=18.7x    frame=13200 fps=449 q=-0.0 size=N/A time=00:09:10.55 bitrate=N/A speed=18.7x    frame=13410 fps=448 q=-0.0 size=N/A time=00:09:19.30 bitrate=N/A speed=18.7x    frame=13644 fps=448 q=-0.0 size=N/A time=00:09:29.06 bitrate=N/A speed=18.7x    frame=13858 fps=447 q=-0.0 size=N/A time=00:09:37.99 bitrate=N/A speed=18.7x    frame=14127 fps=448 q=-0.0 size=N/A time=00:09:49.21 bitrate=N/A speed=18.7x    frame=14349 fps=448 q=-0.0 size=N/A time=00:09:58.47 bitrate=N/A speed=18.7x    frame=14607 fps=449 q=-0.0 size=N/A time=00:10:09.23 bitrate=N/A speed=18.7x    frame=14868 fps=450 q=-0.0 size=N/A time=00:10:20.11 bitrate=N/A speed=18.8x    frame=15043 fps=448 q=-0.0 size=N/A time=00:10:27.41 bitrate=N/A speed=18.7x    frame=15239 fps=447 q=-0.0 size=N/A time=00:10:35.59 bitrate=N/A speed=18.6x    frame=15447 fps=447 q=-0.0 size=N/A time=00:10:44.26 bitrate=N/A speed=18.6x    frame=15730 fps=448 q=-0.0 size=N/A time=00:10:56.07 bitrate=N/A speed=18.7x    frame=15969 fps=448 q=-0.0 size=N/A time=00:11:06.04 bitrate=N/A speed=18.7x    frame=16210 fps=448 q=-0.0 size=N/A time=00:11:16.09 bitrate=N/A speed=18.7x    frame=16473 fps=449 q=-0.0 size=N/A time=00:11:27.06 bitrate=N/A speed=18.7x    frame=16698 fps=449 q=-0.0 size=N/A time=00:11:36.44 bitrate=N/A speed=18.7x    frame=16895 fps=448 q=-0.0 size=N/A time=00:11:44.66 bitrate=N/A speed=18.7x    frame=17145 fps=449 q=-0.0 size=N/A time=00:11:55.08 bitrate=N/A speed=18.7x    frame=17355 fps=448 q=-0.0 size=N/A time=00:12:03.84 bitrate=N/A speed=18.7x    frame=17599 fps=449 q=-0.0 size=N/A time=00:12:14.02 bitrate=N/A speed=18.7x    frame=17852 fps=449 q=-0.0 size=N/A time=00:12:24.57 bitrate=N/A speed=18.7x    frame=18078 fps=449 q=-0.0 size=N/A time=00:12:34.00 bitrate=N/A speed=18.7x    frame=18344 fps=450 q=-0.0 size=N/A time=00:12:45.09 bitrate=N/A speed=18.8x    frame=18613 fps=451 q=-0.0 size=N/A time=00:12:56.31 bitrate=N/A speed=18.8x    frame=18894 fps=452 q=-0.0 size=N/A time=00:13:08.03 bitrate=N/A speed=18.8x    frame=19160 fps=453 q=-0.0 size=N/A time=00:13:19.13 bitrate=N/A speed=18.9x    frame=19412 fps=453 q=-0.0 size=N/A time=00:13:29.64 bitrate=N/A speed=18.9x    frame=19685 fps=454 q=-0.0 size=N/A time=00:13:41.02 bitrate=N/A speed=18.9x    frame=19940 fps=454 q=-0.0 size=N/A time=00:13:51.66 bitrate=N/A speed=  19x    frame=20188 fps=455 q=-0.0 size=N/A time=00:14:02.00 bitrate=N/A speed=  19x    frame=20460 fps=455 q=-0.0 size=N/A time=00:14:13.35 bitrate=N/A speed=  19x    frame=20746 fps=457 q=-0.0 size=N/A time=00:14:25.28 bitrate=N/A speed=  19x    frame=21003 fps=457 q=-0.0 size=N/A time=00:14:36.00 bitrate=N/A speed=19.1x    frame=21255 fps=457 q=-0.0 size=N/A time=00:14:46.51 bitrate=N/A speed=19.1x    frame=21519 fps=458 q=-0.0 size=N/A time=00:14:57.52 bitrate=N/A speed=19.1x    frame=21767 fps=458 q=-0.0 size=N/A time=00:15:07.86 bitrate=N/A speed=19.1x    frame=22031 fps=459 q=-0.0 size=N/A time=00:15:18.87 bitrate=N/A speed=19.1x    frame=22284 fps=459 q=-0.0 size=N/A time=00:15:29.47 bitrate=N/A speed=19.1x    frame=22536 fps=459 q=-0.0 size=N/A time=00:15:39.93 bitrate=N/A speed=19.2x    frame=22820 fps=460 q=-0.0 size=N/A time=00:15:51.78 bitrate=N/A speed=19.2x    frame=23087 fps=461 q=-0.0 size=N/A time=00:16:02.92 bitrate=N/A speed=19.2x    frame=23373 fps=462 q=-0.0 size=N/A time=00:16:14.84 bitrate=N/A speed=19.3x    frame=23656 fps=463 q=-0.0 size=N/A time=00:16:26.65 bitrate=N/A speed=19.3x    frame=23905 fps=463 q=-0.0 size=N/A time=00:16:37.03 bitrate=N/A speed=19.3x    frame=24176 fps=463 q=-0.0 size=N/A time=00:16:48.34 bitrate=N/A speed=19.3x    frame=24445 fps=464 q=-0.0 size=N/A time=00:16:59.56 bitrate=N/A speed=19.4x    frame=24723 fps=465 q=-0.0 size=N/A time=00:17:11.15 bitrate=N/A speed=19.4x    frame=24993 fps=465 q=-0.0 size=N/A time=00:17:22.41 bitrate=N/A speed=19.4x    frame=25247 fps=465 q=-0.0 size=N/A time=00:17:33.01 bitrate=N/A speed=19.4x    frame=25522 fps=466 q=-0.0 size=N/A time=00:17:44.48 bitrate=N/A speed=19.4x    frame=25778 fps=466 q=-0.0 size=N/A time=00:17:55.15 bitrate=N/A speed=19.5x    frame=26005 fps=466 q=-0.0 size=N/A time=00:18:04.62 bitrate=N/A speed=19.4x    frame=26273 fps=467 q=-0.0 size=N/A time=00:18:15.80 bitrate=N/A speed=19.5x    frame=26542 fps=467 q=-0.0 size=N/A time=00:18:27.02 bitrate=N/A speed=19.5x    frame=26813 fps=468 q=-0.0 size=N/A time=00:18:38.32 bitrate=N/A speed=19.5x    frame=27099 fps=469 q=-0.0 size=N/A time=00:18:50.25 bitrate=N/A speed=19.5x    frame=27332 fps=468 q=-0.0 size=N/A time=00:18:59.97 bitrate=N/A speed=19.5x    frame=27560 fps=468 q=-0.0 size=N/A time=00:19:09.48 bitrate=N/A speed=19.5x    frame=27801 fps=468 q=-0.0 size=N/A time=00:19:19.53 bitrate=N/A speed=19.5x    frame=28024 fps=468 q=-0.0 size=N/A time=00:19:28.83 bitrate=N/A speed=19.5x    frame=28239 fps=467 q=-0.0 size=N/A time=00:19:37.80 bitrate=N/A speed=19.5x    frame=28509 fps=468 q=-0.0 size=N/A time=00:19:49.06 bitrate=N/A speed=19.5x    frame=28754 fps=468 q=-0.0 size=N/A time=00:19:59.28 bitrate=N/A speed=19.5x    frame=28993 fps=468 q=-0.0 size=N/A time=00:20:09.24 bitrate=N/A speed=19.5x    frame=29245 fps=468 q=-0.0 size=N/A time=00:20:19.76 bitrate=N/A speed=19.5x    frame=29483 fps=468 q=-0.0 size=N/A time=00:20:29.68 bitrate=N/A speed=19.5x    frame=29699 fps=468 q=-0.0 size=N/A time=00:20:38.69 bitrate=N/A speed=19.5x    frame=29978 fps=468 q=-0.0 size=N/A time=00:20:50.33 bitrate=N/A speed=19.5x    frame=30249 fps=469 q=-0.0 size=N/A time=00:21:01.63 bitrate=N/A speed=19.5x    frame=30498 fps=469 q=-0.0 size=N/A time=00:21:12.02 bitrate=N/A speed=19.6x    frame=30744 fps=469 q=-0.0 size=N/A time=00:21:22.28 bitrate=N/A speed=19.6x    frame=30992 fps=469 q=-0.0 size=N/A time=00:21:32.62 bitrate=N/A speed=19.6x    frame=31255 fps=469 q=-0.0 size=N/A time=00:21:43.59 bitrate=N/A speed=19.6x    frame=31479 fps=469 q=-0.0 size=N/A time=00:21:52.93 bitrate=N/A speed=19.6x    frame=31706 fps=469 q=-0.0 size=N/A time=00:22:02.40 bitrate=N/A speed=19.6x    frame=31985 fps=469 q=-0.0 size=N/A time=00:22:14.04 bitrate=N/A speed=19.6x    frame=32231 fps=469 q=-0.0 size=N/A time=00:22:24.30 bitrate=N/A speed=19.6x    frame=32422 fps=469 q=-0.0 size=N/A time=00:22:32.26 bitrate=N/A speed=19.5x    frame=32560 fps=467 q=-0.0 size=N/A time=00:22:38.02 bitrate=N/A speed=19.5x    frame=32710 fps=466 q=-0.0 size=N/A time=00:22:44.27 bitrate=N/A speed=19.4x    frame=32917 fps=465 q=-0.0 size=N/A time=00:22:52.91 bitrate=N/A speed=19.4x    frame=33098 fps=465 q=-0.0 size=N/A time=00:23:00.46 bitrate=N/A speed=19.4x    frame=33261 fps=463 q=-0.0 size=N/A time=00:23:07.26 bitrate=N/A speed=19.3x    frame=33458 fps=463 q=-0.0 size=N/A time=00:23:15.47 bitrate=N/A speed=19.3x    frame=33672 fps=463 q=-0.0 size=N/A time=00:23:24.40 bitrate=N/A speed=19.3x    frame=33848 fps=462 q=-0.0 size=N/A time=00:23:31.74 bitrate=N/A speed=19.3x    frame=33991 fps=460 q=-0.0 size=N/A time=00:23:37.70 bitrate=N/A speed=19.2x    frame=34138 fps=459 q=-0.0 size=N/A time=00:23:43.83 bitrate=N/A speed=19.2x    frame=34296 fps=458 q=-0.0 size=N/A time=00:23:50.42 bitrate=N/A speed=19.1x    frame=34462 fps=457 q=-0.0 size=N/A time=00:23:57.35 bitrate=N/A speed=19.1x    frame=34648 fps=457 q=-0.0 size=N/A time=00:24:05.11 bitrate=N/A speed=  19x    [Parsed_psnr_10 @ 000002176e4fa040] PSNR y:48.824548 u:50.822773 v:50.457652 average:49.348746 min:40.509484 max:inf
[out#0/null @ 00000217614467c0] video:14934KiB audio:271828KiB subtitle:0KiB other streams:0KiB global headers:0KiB muxing overhead: unknown
frame=34756 fps=457 q=-0.0 Lsize=N/A time=00:24:09.61 bitrate=N/A speed=  19x    
